<?xml version="1.0" encoding="UTF-8"?>
<svg width="1200px" height="300px" viewBox="0 0 1200 300" xmlns="http://www.w3.org/2000/svg" xmlns:xlink="http://www.w3.org/1999/xlink" version="1.1">
 <!-- Generated by Pixelmator Pro 1.3.4 -->
 <g id="new-group">
  <path id="path" d="M1109 148.25 C1127 140.75 1141.25 133.25 1158.75 113 L1159.25 113 C1161.5 121.75 1163.25 130.75 1163.25 139.5 1163.25 178.5 1140.5 204.25 1116.75 204.25 1110.25 204.25 1103.25 201.25 1103.25 197.5 1103.25 190.25 1117.75 196.25 1117.75 183.5 1117.75 177 1112.75 174.25 1107.25 174.25 1099.75 174.25 1092.25 182.5 1092.25 193 1092.25 205.5 1104.5 211.75 1117.25 211.75 1134.25 211.75 1148.75 206.25 1160.5 195 1174 182.5 1179.75 167.5 1179.75 152 1179.75 137 1174.25 121.5 1165.25 106.75 1173 99 1175.75 90 1175.75 84.25 1175.75 78.25 1171.75 76.25 1168.75 76.25 1164.5 76.25 1155.5 83.75 1155.5 97.5 1155.5 99.5 1156 102 1156.75 104.25 1140.25 124.75 1122 136.25 1106.75 141.5 Z" fill="#ff4757" fill-opacity="1" stroke="none"/>
  <path id="path-1" d="M951.25 111.75 C958 116.5 965.75 118.75 973.25 119 969.75 124.5 966.25 130 963.25 135.5 951.5 156 944 176.25 944 190 944 204.5 954 211.75 965.75 211.75 981.5 211.75 996.25 197.5 1022.5 166.75 L1017.25 162.5 C993 190.5 979.25 204.25 967.5 204.25 960.75 204.25 958.5 199.5 958.5 193.5 958.5 176.75 981.25 140 994.25 119 1038.25 112.5 1074.75 80.25 1074.75 54 1074.75 42.5 1069.25 37.25 1058.75 37.25 1038.25 37.25 1004.5 72.75 978.25 111.5 970.75 111.5 963 111 954.75 105.25 Z M999 110 C1012 89.75 1025.75 69.5 1038 57 1044.25 50.5 1051.5 45.25 1058.5 45.25 1064.25 45.25 1067.25 48.25 1067.25 53 1067.25 77 1038.5 101.5 999.25 110.25 Z" fill="#70a1ff" fill-opacity="1" stroke="none"/>
  <path id="path-2" d="M924.75 153.25 C920 156.5 916.25 157.25 910 157.25 905 157.25 899.25 155.75 895.25 153 901.25 141 903.75 130.25 903.75 120.5 903.75 108 895.25 98.75 882 98.75 857.5 98.75 830.25 117.25 812.75 140.25 805.25 150 795.25 158.25 782 158.25 777.25 158.25 772.5 157 767.75 155 L765.25 161.5 C770.75 164.5 775.25 165.75 781.25 165.75 788.5 165.75 796.25 164.25 801.75 159.75 798.75 167.25 797.25 175 797.25 182.5 797.25 202.25 808 211.75 824.5 211.75 849.25 211.75 872.25 194 891.75 160.25 897.5 164 903.75 164.75 909 164.75 917 164.75 922.25 163.25 927.75 159.5 Z M896.25 120.25 C887.5 121.75 880.25 132 880.25 141.5 880.25 146.5 881.25 151.5 884.25 156.25 864.75 192 842.5 204.25 825.75 204.25 816 204.25 811.75 196.5 811.75 188.25 811.75 166.5 854 107.5 882.5 107.5 891.5 107.5 895.5 112.5 896.25 120.25 Z" fill="#2f3542" fill-opacity="1" stroke="none"/>
  <path id="path-3" d="M644.5 85.75 C650.5 93 658.25 96.75 666 98.75 644.75 126.5 624.5 166.5 624.5 188.75 624.5 202.75 634.25 212 647.75 212 668.5 212 692.75 193.5 715 158.5 L715.25 158.5 C721.5 164.5 727.75 166.5 736.25 166.5 738.5 166.5 743 165.75 745.75 164.25 L744 157.75 C742.25 158.5 739.5 159 736.5 159 731 159 724.5 157.25 720.75 151 732.75 131.25 734.5 119.75 734.5 111.5 734.5 107.5 731.25 104.25 728.5 104.25 719.25 104.25 707 118.25 707 138.5 707 144.5 707.25 146 709.5 152.5 689.5 185.25 667.5 204.5 648 204.5 641.25 204.5 639 199.5 639 193.5 639 173.75 671.5 121.75 685.5 101 725 101 752.5 74.75 752.5 51 752.5 43.5 747.25 37.25 737.25 37.25 715.5 37.25 689.25 66 670.75 92 663.25 90.75 656 88 649.5 80.25 Z M745 53 C745 71 720.75 93.5 690.5 93.5 711.25 62.75 725.5 45.25 736.25 45.25 742 45.25 745 48.25 745 53 Z" fill="#ffa502" fill-opacity="1" stroke="none"/>
  <path id="path-4" d="M592.5 160.25 C565.75 191.5 545.5 204.25 533 204.25 528.5 204.25 527.25 201.75 527.25 198.75 527.25 194.75 530.25 188.5 533 184 L557 146 C565.5 132.5 569.25 121.75 569.25 114.25 569.25 104.5 562.5 98.75 551.25 98.75 535 98.75 515.5 110.5 496.5 133 L496 132.75 C498.75 126.5 500.25 120 500.25 114.25 500.25 104 492 98.75 482.25 98.75 465.5 98.75 446.25 110.5 422.75 138.25 L422 137.75 439.5 103 422.5 103 C413 113.75 397.25 127.5 380.75 127.5 376.5 127.5 372.5 126.5 368.25 124.5 L365.75 131 C370.25 133.75 375.25 135 380.25 135 391 135 402.5 131.5 411.5 123.5 L365.5 209 384.75 209 C413.75 149.5 456.25 106.25 480.25 106.25 484.75 106.25 487.25 109 487.25 113 487.25 116.75 484.75 120.25 482.25 124.75 L434.75 209 453.5 209 C483.25 149 525.25 106.25 549.5 106.25 553.5 106.25 556.25 108.75 556.25 112.75 556.25 115.25 555.5 117.75 551.5 123.75 L525.5 161.75 C518.25 172.25 514.25 183.5 514.25 193.75 514.25 205.5 521.75 211.75 531.5 211.75 550.25 211.75 572.75 195.25 597.75 164.25 Z" fill="#2ed573" fill-opacity="1" stroke="none"/>
  <path id="path-5" d="M343 103 L323.5 103 C295.25 161.5 258.5 204.25 234.75 204.25 229 204.25 226.5 201 226.5 196.25 226.5 190.25 228.75 182.5 232 176.75 L271.75 103 253 103 C243.5 113.75 227.75 127.5 211.25 127.5 207 127.5 203 126.5 198.75 124.5 L196.25 131 C200.75 133.75 205.75 135 210.75 135 221.5 135 232.5 131.5 242 123.5 L225 155 C217.75 168.5 213.5 180 213.5 189.75 213.5 204.75 222 211.75 232.75 211.75 249.5 211.75 266.75 199.75 285.5 178.25 L286.25 178.5 261.5 222.75 C256.5 220.75 243.75 219.5 238.75 219.5 229.75 219.5 219.25 220.25 210 226 203.25 230 196.5 236.75 196.5 246 196.5 254.5 204.25 263.75 221 263.75 241 263.75 258 255.5 271.75 235.25 278.25 238.25 288.5 240.75 297.25 240.75 306.5 240.75 315 239.5 326.5 232.25 L323.5 225.75 C316 231.25 306 233.25 298.5 233.25 290.75 233.25 282.75 231 276 227.5 284.5 214.5 292.25 200.5 300.25 185 Z M257.75 230.5 C244 252.5 228.5 255.25 219 255.25 210.75 255.25 205 251 205 245 205 234.5 217.5 227 236.5 227 242.5 227 252.5 228 257.5 230.25 Z" fill="#1e90ff" fill-opacity="1" stroke="none"/>
  <path id="path-6" d="M102.25 173.25 C99 146 80.25 134.25 61.5 134.25 41 134.25 19.75 148.5 19.75 173.5 19.75 201.75 44.75 212.75 69 212.75 107.5 212.75 139.75 191.75 139.75 158 139.75 125 99.25 113.75 99.25 86.25 99.25 63.5 123.75 48 143 48 156.25 48 170 53 170 68.25 170 84 158 93.5 142.75 95 L142.75 100.25 C159.75 100.25 178.25 86.25 178.25 68 178.25 47 159.75 39 143.25 39 116.5 39 80 55.25 80 91 80 124 119.25 134.75 119.25 161.25 119.25 190.25 94.25 205.25 71 205.25 51 205.25 35.25 192.25 35.25 174.75 35.25 156 51.25 145 63.25 145 76.75 145 89.5 148 97.25 174.25 Z" fill="#ff4757" fill-opacity="1" stroke="none"/>
 </g>
</svg>
