<?xml version="1.0" encoding="UTF-8"?>
<svg width="1200px" height="250px" viewBox="0 0 1200 250" xmlns="http://www.w3.org/2000/svg" xmlns:xlink="http://www.w3.org/1999/xlink" version="1.1">
 <!-- Generated by Pixelmator Pro 1.3.4 -->
 <g id="new-group">
  <path id="path" d="M1109 123.25 C1127 115.75 1141.25 108.25 1158.75 88 L1159.25 88 C1161.5 96.75 1163.25 105.75 1163.25 114.5 1163.25 153.5 1140.5 179.25 1116.75 179.25 1110.25 179.25 1103.25 176.25 1103.25 172.5 1103.25 165.25 1117.75 171.25 1117.75 158.5 1117.75 152 1112.75 149.25 1107.25 149.25 1099.75 149.25 1092.25 157.5 1092.25 168 1092.25 180.5 1104.5 186.75 1117.25 186.75 1134.25 186.75 1148.75 181.25 1160.5 170 1174 157.5 1179.75 142.5 1179.75 127 1179.75 112 1174.25 96.5 1165.25 81.75 1173 74 1175.75 65 1175.75 59.25 1175.75 53.25 1171.75 51.25 1168.75 51.25 1164.5 51.25 1155.5 58.75 1155.5 72.5 1155.5 74.5 1156 77 1156.75 79.25 1140.25 99.75 1122 111.25 1106.75 116.5 Z" fill="#ff4757" fill-opacity="1" stroke="none"/>
  <path id="path-1" d="M951.25 86.75 C958 91.5 965.75 93.75 973.25 94 969.75 99.5 966.25 105 963.25 110.5 951.5 131 944 151.25 944 165 944 179.5 954 186.75 965.75 186.75 981.5 186.75 996.25 172.5 1022.5 141.75 L1017.25 137.5 C993 165.5 979.25 179.25 967.5 179.25 960.75 179.25 958.5 174.5 958.5 168.5 958.5 151.75 981.25 115 994.25 94 1038.25 87.5 1074.75 55.25 1074.75 29 1074.75 17.5 1069.25 12.25 1058.75 12.25 1038.25 12.25 1004.5 47.75 978.25 86.5 970.75 86.5 963 86 954.75 80.25 Z M999 85 C1012 64.75 1025.75 44.5 1038 32 1044.25 25.5 1051.5 20.25 1058.5 20.25 1064.25 20.25 1067.25 23.25 1067.25 28 1067.25 52 1038.5 76.5 999.25 85.25 Z" fill="#70a1ff" fill-opacity="1" stroke="none"/>
  <path id="path-2" d="M924.75 128.25 C920 131.5 916.25 132.25 910 132.25 905 132.25 899.25 130.75 895.25 128 901.25 116 903.75 105.25 903.75 95.5 903.75 83 895.25 73.75 882 73.75 857.5 73.75 830.25 92.25 812.75 115.25 805.25 125 795.25 133.25 782 133.25 777.25 133.25 772.5 132 767.75 130 L765.25 136.5 C770.75 139.5 775.25 140.75 781.25 140.75 788.5 140.75 796.25 139.25 801.75 134.75 798.75 142.25 797.25 150 797.25 157.5 797.25 177.25 808 186.75 824.5 186.75 849.25 186.75 872.25 169 891.75 135.25 897.5 139 903.75 139.75 909 139.75 917 139.75 922.25 138.25 927.75 134.5 Z M896.25 95.25 C887.5 96.75 880.25 107 880.25 116.5 880.25 121.5 881.25 126.5 884.25 131.25 864.75 167 842.5 179.25 825.75 179.25 816 179.25 811.75 171.5 811.75 163.25 811.75 141.5 854 82.5 882.5 82.5 891.5 82.5 895.5 87.5 896.25 95.25 Z" fill="#2f3542" fill-opacity="1" stroke="none"/>
  <path id="path-3" d="M644.5 60.75 C650.5 68 658.25 71.75 666 73.75 644.75 101.5 624.5 141.5 624.5 163.75 624.5 177.75 634.25 187 647.75 187 668.5 187 692.75 168.5 715 133.5 L715.25 133.5 C721.5 139.5 727.75 141.5 736.25 141.5 738.5 141.5 743 140.75 745.75 139.25 L744 132.75 C742.25 133.5 739.5 134 736.5 134 731 134 724.5 132.25 720.75 126 732.75 106.25 734.5 94.75 734.5 86.5 734.5 82.5 731.25 79.25 728.5 79.25 719.25 79.25 707 93.25 707 113.5 707 119.5 707.25 121 709.5 127.5 689.5 160.25 667.5 179.5 648 179.5 641.25 179.5 639 174.5 639 168.5 639 148.75 671.5 96.75 685.5 76 725 76 752.5 49.75 752.5 26 752.5 18.5 747.25 12.25 737.25 12.25 715.5 12.25 689.25 41 670.75 67 663.25 65.75 656 63 649.5 55.25 Z M745 28 C745 46 720.75 68.5 690.5 68.5 711.25 37.75 725.5 20.25 736.25 20.25 742 20.25 745 23.25 745 28 Z" fill="#ffa502" fill-opacity="1" stroke="none"/>
  <path id="path-4" d="M592.5 135.25 C565.75 166.5 545.5 179.25 533 179.25 528.5 179.25 527.25 176.75 527.25 173.75 527.25 169.75 530.25 163.5 533 159 L557 121 C565.5 107.5 569.25 96.75 569.25 89.25 569.25 79.5 562.5 73.75 551.25 73.75 535 73.75 515.5 85.5 496.5 108 L496 107.75 C498.75 101.5 500.25 95 500.25 89.25 500.25 79 492 73.75 482.25 73.75 465.5 73.75 446.25 85.5 422.75 113.25 L422 112.75 439.5 78 422.5 78 C413 88.75 397.25 102.5 380.75 102.5 376.5 102.5 372.5 101.5 368.25 99.5 L365.75 106 C370.25 108.75 375.25 110 380.25 110 391 110 402.5 106.5 411.5 98.5 L365.5 184 384.75 184 C413.75 124.5 456.25 81.25 480.25 81.25 484.75 81.25 487.25 84 487.25 88 487.25 91.75 484.75 95.25 482.25 99.75 L434.75 184 453.5 184 C483.25 124 525.25 81.25 549.5 81.25 553.5 81.25 556.25 83.75 556.25 87.75 556.25 90.25 555.5 92.75 551.5 98.75 L525.5 136.75 C518.25 147.25 514.25 158.5 514.25 168.75 514.25 180.5 521.75 186.75 531.5 186.75 550.25 186.75 572.75 170.25 597.75 139.25 Z" fill="#2ed573" fill-opacity="1" stroke="none"/>
  <path id="path-5" d="M343 78 L323.5 78 C295.25 136.5 258.5 179.25 234.75 179.25 229 179.25 226.5 176 226.5 171.25 226.5 165.25 228.75 157.5 232 151.75 L271.75 78 253 78 C243.5 88.75 227.75 102.5 211.25 102.5 207 102.5 203 101.5 198.75 99.5 L196.25 106 C200.75 108.75 205.75 110 210.75 110 221.5 110 232.5 106.5 242 98.5 L225 130 C217.75 143.5 213.5 155 213.5 164.75 213.5 179.75 222 186.75 232.75 186.75 249.5 186.75 266.75 174.75 285.5 153.25 L286.25 153.5 261.5 197.75 C256.5 195.75 243.75 194.5 238.75 194.5 229.75 194.5 219.25 195.25 210 201 203.25 205 196.5 211.75 196.5 221 196.5 229.5 204.25 238.75 221 238.75 241 238.75 258 230.5 271.75 210.25 278.25 213.25 288.5 215.75 297.25 215.75 306.5 215.75 315 214.5 326.5 207.25 L323.5 200.75 C316 206.25 306 208.25 298.5 208.25 290.75 208.25 282.75 206 276 202.5 284.5 189.5 292.25 175.5 300.25 160 Z M257.75 205.5 C244 227.5 228.5 230.25 219 230.25 210.75 230.25 205 226 205 220 205 209.5 217.5 202 236.5 202 242.5 202 252.5 203 257.5 205.25 Z" fill="#1e90ff" fill-opacity="1" stroke="none"/>
  <path id="path-6" d="M102.25 148.25 C99 121 80.25 109.25 61.5 109.25 41 109.25 19.75 123.5 19.75 148.5 19.75 176.75 44.75 187.75 69 187.75 107.5 187.75 139.75 166.75 139.75 133 139.75 100 99.25 88.75 99.25 61.25 99.25 38.5 123.75 23 143 23 156.25 23 170 28 170 43.25 170 59 158 68.5 142.75 70 L142.75 75.25 C159.75 75.25 178.25 61.25 178.25 43 178.25 22 159.75 14 143.25 14 116.5 14 80 30.25 80 66 80 99 119.25 109.75 119.25 136.25 119.25 165.25 94.25 180.25 71 180.25 51 180.25 35.25 167.25 35.25 149.75 35.25 131 51.25 120 63.25 120 76.75 120 89.5 123 97.25 149.25 Z" fill="#ff4757" fill-opacity="1" stroke="none"/>
 </g>
</svg>
